<svg xmlns="http://www.w3.org/2000/svg" viewBox="0 0 312 78" enable-background="new 0 0 312 78"><style type="text/css">.st0{fill:#231F20;}</style><title>Asset 2</title><g id="Layer_1-2"><path class="st0" d="M79.1 70.9l-3.1-5.1h2.6l1.7 3 1.7-3h2.5l-3.1 5.1v3.1h-2.3v-3.1zM84.9 70.8c0-1.8 1.5-3.3 3.5-3.3s3.5 1.5 3.5 3.3c0 1.8-1.5 3.3-3.5 3.3s-3.5-1.5-3.5-3.3zm4.8 0c0-.8-.6-1.4-1.3-1.4-.7 0-1.3.6-1.3 1.3v.1c0 .8.5 1.4 1.3 1.4.7 0 1.3-.6 1.3-1.4zM94.1 71.7v-4.1h2.2v3.4c0 .7.4 1.1.9 1.1s.9-.4.9-1.1v-3.4h2.2v6.3h-2.2v-.9c-.4.6-1.1 1-1.9 1-1.3 0-2.1-.8-2.1-2.3zM102.9 67.6h2.2v1.3c.4-.9.9-1.4 2-1.4v2.3h-.2c-1.2 0-1.8.7-1.8 2.1v2h-2.2v-6.3zM116.1 73.1v.8h-2.2v-8.5h2.2v3c.4-.6 1.2-1 1.9-1 1.5 0 2.8 1.2 2.8 3.3 0 2-1.3 3.3-2.8 3.3-.7.1-1.4-.3-1.9-.9zm2.5-2.3c.1-.7-.4-1.4-1.1-1.5-.7-.1-1.4.4-1.4 1.1v.3c-.1.7.4 1.4 1.1 1.4.7.1 1.4-.4 1.4-1.1v-.2zM122.9 70.8c0-1.9 1.3-3.3 3.2-3.3 2.2 0 3.2 1.6 3.2 3.4v.5h-4.3c.1.6.7 1.1 1.4 1 .5 0 1-.2 1.4-.6l1.2 1c-.6.8-1.7 1.3-2.7 1.3-2 0-3.4-1.4-3.4-3.3zm4.3-.6c-.1-.7-.5-1.1-1.1-1.1-.6 0-1 .4-1.1 1.1h2.2zM131.3 70.8c0-2.1 1.3-3.3 2.8-3.3.7 0 1.5.3 1.9.9v-.8h2.2v6.3h-2.2v-.8c-.4.6-1.2 1-1.9 1-1.5-.1-2.8-1.3-2.8-3.3zm4.8 0c.1-.7-.4-1.4-1.1-1.5-.7-.1-1.4.4-1.4 1.1v.3c-.1.7.4 1.4 1.1 1.4.7.1 1.4-.4 1.4-1.1v-.2zM140.8 71.7v-4.1h2.2v3.4c0 .7.4 1.1.9 1.1s.9-.4.9-1.1v-3.4h2.2v6.3h-2.2v-.9c-.4.6-1.1 1-1.9 1-1.3 0-2.1-.8-2.1-2.3zM150 72v-2.6h-.7v-1.8h.7v-1.6h2.2v1.6h1.5v1.8h-1.5v2.1c0 .4.2.6.6.6.3 0 .6-.1.9-.2v1.7c-.5.3-1 .4-1.5.4-1.5 0-2.2-.5-2.2-2zM160.3 67.6h2.3l-2.3 6.1c-.5 1.5-1.1 2-2.4 2-.7 0-1.4-.2-2-.5l.7-1.5c.3.2.6.3 1 .3.2 0 .4-.1.5-.3l-2.4-6.2h2.3l1.3 3.8 1-3.7zM169.3 65.4h2.2v3.1c.4-.6 1.1-1 1.9-1 1.3 0 2.1.9 2.1 2.3v4.1h-2.2v-3.4c0-.7-.4-1.1-.9-1.1s-.9.4-.9 1.1v3.4h-2.2v-8.5zM177.8 70.8c0-2.1 1.3-3.3 2.8-3.3.7 0 1.5.3 1.9.9v-.8h2.2v6.3h-2.2v-.8c-.4.6-1.2 1-1.9 1-1.5-.1-2.8-1.3-2.8-3.3zm4.7 0c.1-.7-.4-1.4-1.1-1.5-.7-.1-1.4.4-1.4 1.1v.3c-.1.7.4 1.4 1.1 1.4.7.1 1.4-.4 1.4-1.1v-.2zM187.3 67.6h2.2v.8c.4-.6 1.2-1 1.9-1 1.5 0 2.8 1.2 2.8 3.3 0 2-1.3 3.3-2.8 3.3-.7 0-1.5-.3-1.9-.9v2.6h-2.2v-8.1zm4.7 3.2c.1-.7-.4-1.4-1.1-1.5-.7-.1-1.4.4-1.4 1.1v.3c-.1.7.4 1.4 1.1 1.4.7.1 1.4-.4 1.4-1.1v-.2zM196.5 67.6h2.2v.8c.4-.6 1.2-1 1.9-1 1.5 0 2.8 1.2 2.8 3.3 0 2-1.3 3.3-2.8 3.3-.7 0-1.5-.3-1.9-.9v2.6h-2.2v-8.1zm4.7 3.2c.1-.7-.4-1.4-1.1-1.5-.7-.1-1.4.4-1.4 1.1v.3c-.1.7.4 1.4 1.1 1.4.7.1 1.4-.4 1.4-1.1v-.2zM209.7 67.6h2.3l-2.3 6.1c-.5 1.5-1.1 2-2.4 2-.7 0-1.4-.2-2-.5l.7-1.5c.3.2.6.3 1 .3.2 0 .4-.1.5-.3l-2.5-6.2h2.3l1.3 3.8 1.1-3.7zM218.7 67.6h2.2v.8c.4-.6 1.2-1 1.9-1 1.5 0 2.8 1.2 2.8 3.3 0 2-1.3 3.3-2.8 3.3-.7 0-1.5-.3-1.9-.9v2.6h-2.2v-8.1zm4.8 3.2c.1-.7-.4-1.4-1.1-1.5-.7-.1-1.4.4-1.4 1.1v.3c-.1.7.4 1.4 1.1 1.4.7.1 1.4-.4 1.4-1.1v-.2zM228 65.4h2.2v8.5h-2.2v-8.5zM232.6 70.8c0-2.1 1.3-3.3 2.8-3.3.7 0 1.5.3 1.9.9v-.8h2.2v6.3h-2.2v-.8c-.4.6-1.2 1-1.9 1-1.5-.1-2.8-1.3-2.8-3.3zm4.8 0c.1-.7-.4-1.4-1.1-1.5-.7-.1-1.4.4-1.4 1.1v.3c-.1.7.4 1.4 1.1 1.4.7.1 1.4-.4 1.4-1.1v-.2zM241.9 70.8c0-1.8 1.4-3.3 3.2-3.3h.1c1.1-.1 2.1.5 2.7 1.4l-1.5 1.1c-.3-.4-.7-.7-1.2-.7-.7 0-1.3.7-1.2 1.4 0 .8.5 1.4 1.3 1.4.5 0 .9-.2 1.2-.6l1.5 1.1c-.6.9-1.7 1.5-2.8 1.4-1.8.1-3.3-1.3-3.3-3.2zM249.7 70.8c0-1.9 1.3-3.3 3.2-3.3 2.2 0 3.2 1.6 3.2 3.4v.5h-4.2c.1.6.7 1.1 1.4 1 .5 0 1-.2 1.4-.6l1.2 1c-.6.8-1.7 1.3-2.7 1.3-2.1 0-3.5-1.4-3.5-3.3zm4.3-.6c-.1-.7-.5-1.1-1.1-1.1-.6 0-1 .4-1.1 1.1h2.2zM60.5 51.5v-48.7h8.9v48.7h-8.9zM110.7 34.7c0 10.2-7.5 17.6-17.4 17.6s-17.3-7.5-17.3-17.6 7.5-17.6 17.3-17.6 17.4 7.3 17.4 17.6zm-8.9 0c0-6.3-4-9.4-8.4-9.4s-8.4 3.1-8.4 9.4 4 9.4 8.4 9.4 8.4-3.2 8.4-9.4zM146.1 18.4l7.1 21.3 6.1-21.3h8.9l-10.4 33.1h-8.9l-7.7-22.6-7.6 22.6h-9.1l-10.6-33.1h9.4l6.1 21.3 7.2-21.3h9.5zM183.1 51.5h-8.9v-48.7h8.9v18.4c2.1-2.6 5.8-3.6 8.9-3.6 8.4 0 12.3 5.8 12.3 13.1v20.9h-8.9v-19.4c0-3.7-1.8-6.6-6.1-6.6-3.8 0-6 2.8-6.2 6.5v19.4zM220.3 32.4l8.1-1.2c1.9-.3 2.5-1.2 2.5-2.4 0-2.4-1.8-4.3-5.6-4.3s-6.1 2.5-6.3 5.4l-7.9-1.7c.5-5.2 5.3-10.9 14.2-10.9 10.5 0 14.4 5.9 14.4 12.6v16.3c0 1.8.1 3.5.4 5.2h-8.2c-.2-1.3-.3-2.7-.3-4-1.7 2.6-4.8 4.9-9.8 4.9-7.1 0-11.4-4.8-11.4-10 0-5.8 4.4-9.1 9.9-9.9zm10.6 5.7v-1.5l-7.5 1.1c-2.3.3-4.1 1.6-4.1 4.2 0 2 1.4 3.8 4.3 3.8 3.8 0 7.3-1.8 7.3-7.6zM291.5 40.2c.2 2.6 2.1 5 6 5 3 0 4.4-1.5 4.4-3.3 0-1.5-1-2.7-3.6-3.2l-4.4-1c-6.4-1.4-9.3-5.2-9.3-9.9 0-5.9 5.2-10.8 12.4-10.8 9.4 0 12.6 6 13 9.6l-7.5 1.7c-.3-2-1.7-4.4-5.5-4.4-2.4 0-4.2 1.4-4.2 3.3 0 1.6 1.2 2.6 3 3l4.7 1c6.5 1.4 9.8 5.3 9.8 10.2 0 5.4-4.2 10.9-12.9 10.9-10 0-13.4-6.5-13.8-10.2l7.9-1.9zM246.3 37.4v-19h8.9v19c0 3.8 3.2 6.4 7 6.4s7-2.7 7-6.4v-19h8.9v19c0 8.7-7.1 15.3-15.9 15.3-8.8-.1-15.9-6.6-15.9-15.3zM44.4 18.9v1.5c-2.6-1.3-5.4-2-8.3-2-9.6 0-16.9 7.2-16.9 17.1s7.3 17.1 16.9 17.1c2.9 0 5.8-.7 8.3-2v2.4c0 5.1-4 7.9-8.5 7.8-2.4-.1-4.6-1.1-6.3-2.8l-6 6c3.2 3.2 7.6 5 12.1 5 9.2 0 17.3-5.4 17.3-16.1v-34h-8.6zm-8.3 25.8c-4.3 0-8.2-3.2-8.2-9.2s3.9-9.2 8.2-9.2 8.2 3.1 8.2 9.2-4 9.2-8.2 9.2zM23.3 12c-.7 0-4.7.3-6.8 2.4s-2.4 5.9-2.5 6.8v.1-.1c-.1-.9-.3-4.7-2.5-6.8s-6.1-2.4-6.8-2.4c.7 0 4.7-.3 6.8-2.4s2.4-5.9 2.5-6.8v-.1.1c.1.9.3 4.7 2.5 6.8s6.1 2.3 6.8 2.4"/></g></svg>