<svg xmlns="http://www.w3.org/2000/svg" width="947.56" height="66.4" viewBox="0 0 947.56 66.4"><defs><style>.cls-1{fill:#231f20;}</style></defs><title>Asset 2</title><g id="Layer_2" data-name="Layer 2"><g id="Layer_1-2" data-name="Layer 1"><path class="cls-1" d="M393.8,34.81l-9.71-15.93h8l5.24,9.27,5.27-9.27h7.89L400.86,34.7v9.64H393.8Z"/><path class="cls-1" d="M411.91,34.6v-.07c0-5.6,4.58-10.29,10.87-10.29s10.84,4.62,10.84,10.22v.07c0,5.6-4.58,10.29-10.91,10.29S411.91,40.19,411.91,34.6Zm15,0v-.07a4.3,4.3,0,0,0-4.22-4.47,4.13,4.13,0,0,0-4.11,4.4v.07A4.26,4.26,0,0,0,422.78,39,4.15,4.15,0,0,0,426.93,34.6Z"/><path class="cls-1" d="M440.74,37.5V24.67h6.91V35.32c0,2.15,1.13,3.31,2.8,3.31s2.91-1.16,2.91-3.31V24.67h6.87V44.34h-6.87V41.61a7.27,7.27,0,0,1-5.89,3.16C443.28,44.78,440.74,42,440.74,37.5Z"/><path class="cls-1" d="M468.3,24.67h6.91v4c1.13-2.69,2.94-4.44,6.22-4.29v7.27h-.58c-3.6,0-5.64,2.07-5.64,6.58v6.14H468.3Z"/><path class="cls-1" d="M509.56,41.94v2.4h-6.91V17.8h6.91v9.49a7.22,7.22,0,0,1,6-3.05c4.69,0,8.73,3.89,8.73,10.18v.07c0,6.4-4,10.29-8.69,10.29A7.39,7.39,0,0,1,509.56,41.94Zm7.93-7.42v-.07a4.06,4.06,0,1,0-8.07,0v.07a4.06,4.06,0,1,0,8.07,0Z"/><path class="cls-1" d="M530.83,34.6v-.07c0-5.75,4.11-10.29,9.93-10.29,6.76,0,9.89,5,9.89,10.76,0,.44,0,.95,0,1.42H537.45a4.06,4.06,0,0,0,4.25,3.24,5.88,5.88,0,0,0,4.36-2l3.82,3.16a10.28,10.28,0,0,1-8.51,4C535.2,44.81,530.83,40.67,530.83,34.6Zm13.38-1.71c-.25-2.18-1.56-3.56-3.45-3.56s-3.05,1.38-3.42,3.56Z"/><path class="cls-1" d="M557.26,34.6v-.07c0-6.4,4-10.29,8.69-10.29a7.39,7.39,0,0,1,6,2.84v-2.4h6.91V44.34H572V41.72a7.22,7.22,0,0,1-6,3.05C561.3,44.78,557.26,40.89,557.26,34.6Zm14.84-.07v-.07a4.06,4.06,0,1,0-8.07,0v.07a4.06,4.06,0,1,0,8.07,0Z"/><path class="cls-1" d="M586.79,37.5V24.67h6.91V35.32c0,2.15,1.13,3.31,2.8,3.31s2.91-1.16,2.91-3.31V24.67h6.87V44.34h-6.87V41.61a7.27,7.27,0,0,1-5.89,3.16C589.33,44.78,586.79,42,586.79,37.5Z"/><path class="cls-1" d="M615.58,38.23v-8h-2.33V24.67h2.33v-5h6.87v5H627V30.2h-4.58v6.69c0,1.38.62,2,1.89,2A6.07,6.07,0,0,0,627,38.2v5.38a9.85,9.85,0,0,1-4.8,1.16C618,44.74,615.58,42.92,615.58,38.23Z"/><path class="cls-1" d="M647.8,24.67h7.09l-7.2,19.2c-1.71,4.62-3.57,6.4-7.49,6.4a12.22,12.22,0,0,1-6.29-1.71L636,43.72a6.82,6.82,0,0,0,3,1.05,1.82,1.82,0,0,0,1.64-.8L633,24.67h7.2l3.93,11.85Z"/><path class="cls-1" d="M675.94,17.8h6.91v9.56a7.24,7.24,0,0,1,5.89-3.13c4.18,0,6.69,2.76,6.69,7.24V44.34h-6.87V33.69c0-2.18-1.13-3.34-2.8-3.34s-2.91,1.16-2.91,3.34V44.34h-6.91Z"/><path class="cls-1" d="M702.62,34.6v-.07c0-6.4,4-10.29,8.69-10.29a7.39,7.39,0,0,1,6,2.84v-2.4h6.91V44.34h-6.91V41.72a7.22,7.22,0,0,1-6,3.05C706.66,44.78,702.62,40.89,702.62,34.6Zm14.84-.07v-.07a4.06,4.06,0,1,0-8.07,0v.07a4.06,4.06,0,1,0,8.07,0Z"/><path class="cls-1" d="M732.29,24.67h6.91v2.62a7.22,7.22,0,0,1,6-3.05c4.69,0,8.73,3.89,8.73,10.18v.07c0,6.4-4,10.29-8.69,10.29a7.39,7.39,0,0,1-6-2.84v8.22h-6.91Zm14.84,9.85v-.07a4.06,4.06,0,1,0-8.07,0v.07a4.06,4.06,0,1,0,8.07,0Z"/><path class="cls-1" d="M761.23,24.67h6.91v2.62a7.22,7.22,0,0,1,6-3.05c4.69,0,8.73,3.89,8.73,10.18v.07c0,6.4-4,10.29-8.69,10.29a7.39,7.39,0,0,1-6-2.84v8.22h-6.91Zm14.84,9.85v-.07a4.06,4.06,0,1,0-8.07,0v.07a4.06,4.06,0,1,0,8.07,0Z"/><path class="cls-1" d="M802.68,24.67h7.09l-7.2,19.2c-1.71,4.62-3.56,6.4-7.49,6.4a12.2,12.2,0,0,1-6.29-1.71l2.11-4.84a6.8,6.8,0,0,0,3,1.05,1.82,1.82,0,0,0,1.64-.8l-7.71-19.31H795L799,36.52Z"/><path class="cls-1" d="M830.82,24.67h6.91v2.62a7.22,7.22,0,0,1,6-3.05c4.69,0,8.73,3.89,8.73,10.18v.07c0,6.4-4,10.29-8.69,10.29a7.39,7.39,0,0,1-6-2.84v8.22h-6.91Zm14.84,9.85v-.07a4.06,4.06,0,1,0-8.07,0v.07a4.06,4.06,0,1,0,8.07,0Z"/><path class="cls-1" d="M859.94,17.8h6.87V44.34h-6.87Z"/><path class="cls-1" d="M874.34,34.6v-.07c0-6.4,4-10.29,8.69-10.29a7.39,7.39,0,0,1,6,2.84v-2.4h6.91V44.34H889V41.72a7.22,7.22,0,0,1-6,3.05C878.38,44.78,874.34,40.89,874.34,34.6Zm14.84-.07v-.07a4.06,4.06,0,1,0-8.07,0v.07a4.06,4.06,0,1,0,8.07,0Z"/><path class="cls-1" d="M903.24,34.6v-.07a10.19,10.19,0,0,1,10.51-10.25,9.35,9.35,0,0,1,8.4,4.36l-4.65,3.49a4.41,4.41,0,0,0-3.67-2.07,4.12,4.12,0,0,0-3.89,4.4v.07c0,2.55,1.6,4.47,3.93,4.47a4.61,4.61,0,0,0,3.78-2l4.62,3.35a9.74,9.74,0,0,1-8.73,4.51A10.13,10.13,0,0,1,903.24,34.6Z"/><path class="cls-1" d="M927.75,34.6v-.07c0-5.75,4.11-10.29,9.93-10.29,6.76,0,9.89,5,9.89,10.76,0,.44,0,.95,0,1.42H934.37a4.06,4.06,0,0,0,4.25,3.24,5.88,5.88,0,0,0,4.36-2l3.82,3.16a10.28,10.28,0,0,1-8.51,4C932.11,44.81,927.75,40.67,927.75,34.6Zm13.38-1.71c-.25-2.18-1.56-3.56-3.45-3.56s-3.05,1.38-3.42,3.56Z"/><path class="cls-1" d="M55.79,48.8V.09h8.95V48.8Z"/><path class="cls-1" d="M106.06,32c0,10.16-7.47,17.56-17.36,17.56S71.35,42.12,71.35,32,78.81,14.41,88.7,14.41,106.06,21.74,106.06,32Zm-8.95,0c0-6.26-4-9.42-8.41-9.42S80.29,25.71,80.29,32s4,9.42,8.41,9.42S97.11,38.22,97.11,32Z"/><path class="cls-1" d="M141.39,15.7,148.52,37l6.12-21.33h8.88L153.16,48.8h-8.95l-7.74-22.6-7.6,22.6h-9.08L109.23,15.7h9.42L124.77,37,132,15.7Z"/><path class="cls-1" d="M178.44,48.8h-8.95V.09h8.95V18.45c2.15-2.56,5.79-3.63,8.95-3.63,8.41,0,12.31,5.85,12.31,13.12V48.8h-8.95V29.49c0-3.7-1.82-6.59-6.12-6.59-3.77,0-6,2.83-6.19,6.46Z"/><path class="cls-1" d="M215.63,29.76l8.14-1.21c1.88-.27,2.49-1.21,2.49-2.35,0-2.35-1.82-4.31-5.58-4.31s-6.05,2.49-6.32,5.38l-7.94-1.68c.54-5.18,5.31-10.9,14.2-10.9,10.5,0,14.4,5.92,14.4,12.58V43.55a37.05,37.05,0,0,0,.4,5.25H227.2a22.41,22.41,0,0,1-.34-4c-1.68,2.62-4.84,4.91-9.75,4.91-7.06,0-11.37-4.78-11.37-10C205.74,33.86,210.11,30.56,215.63,29.76Zm10.63,5.65V33.93l-7.47,1.14c-2.29.34-4.1,1.61-4.1,4.17,0,2,1.41,3.83,4.31,3.83C222.76,43.08,226.26,41.26,226.26,35.41Z"/><path class="cls-1" d="M286.8,37.52c.2,2.62,2.15,5,6.05,5,3,0,4.37-1.55,4.37-3.3,0-1.48-1-2.69-3.57-3.23l-4.37-1c-6.39-1.41-9.28-5.25-9.28-9.89,0-5.92,5.25-10.83,12.38-10.83,9.42,0,12.58,6,13,9.55l-7.47,1.68c-.27-2-1.68-4.44-5.45-4.44-2.35,0-4.24,1.41-4.24,3.3,0,1.61,1.21,2.62,3,3l4.71,1c6.53,1.35,9.82,5.31,9.82,10.16,0,5.38-4.17,10.9-12.85,10.9-10,0-13.39-6.46-13.79-10.23Z"/><path class="cls-1" d="M241.64,34.7v-19h8.93v19c0,3.75,3.23,6.41,7,6.41s7-2.66,7-6.41v-19h8.93v19c0,8.73-7.14,15.28-15.93,15.28S241.64,43.43,241.64,34.7Z"/><path class="cls-1" d="M39.75,16.26v1.47a17.5,17.5,0,0,0-8.33-2c-9.65,0-16.94,7.16-16.94,17.14S21.76,50,31.42,50a17.42,17.42,0,0,0,8.33-2V50.3c0,5.11-4,7.89-8.48,7.82A8.87,8.87,0,0,1,25,55.3L19,61.35a17.07,17.07,0,0,0,12.11,5c9.22,0,17.29-5.4,17.29-16.1v-34ZM31.42,42c-4.27,0-8.21-3.15-8.21-9.19s3.94-9.19,8.21-9.19,8.21,3.09,8.21,9.19S35.68,42,31.42,42Z"/><path class="cls-1" d="M18.68,9.34c-.73,0-4.69.29-6.82,2.43S9.46,17.7,9.38,18.58c0,.06,0,.08,0,.07s0,0,0-.07c-.08-.88-.34-4.69-2.47-6.82S.77,9.38,0,9.34c-.06,0-.06,0,0,0H0c.73,0,4.69-.29,6.82-2.43S9.26,1,9.34.07c0-.06,0-.08,0-.07s0,0,0,.07c.08.88.34,4.69,2.47,6.82s6.1,2.38,6.82,2.43c.06,0,.06,0,0,0"/><path class="cls-1" d="M354.68,29.34c-.73,0-4.69.29-6.82,2.43s-2.39,5.94-2.47,6.82c0,.06,0,.08,0,.07s0,0,0-.07c-.08-.88-.34-4.69-2.47-6.82s-6.1-2.38-6.82-2.43c-.06,0-.06,0,0,0h0c.73,0,4.69-.29,6.82-2.43s2.39-5.94,2.47-6.82c0-.06,0-.08,0-.07s0,0,0,.07c.08.88.34,4.69,2.47,6.82s6.1,2.38,6.82,2.43c.06,0,.06,0,0,0"/></g></g></svg>